<svg xmlns="http://www.w3.org/2000/svg" viewBox="0 0 1200 630" width="1200" height="630">
  <defs>
    <linearGradient id="g" x1="0" y1="630" x2="1200" y2="0" gradientUnits="userSpaceOnUse">
      <stop offset="0%" stop-color="#38BDF8"/>
      <stop offset="50%" stop-color="#0EA5E9"/>
      <stop offset="100%" stop-color="#0284C7"/>
    </linearGradient>
    <radialGradient id="glow" cx="50%" cy="100%" r="60%">
      <stop offset="0%" stop-color="#0EA5E9" stop-opacity="0.28"/>
      <stop offset="100%" stop-color="#08111E" stop-opacity="0"/>
    </radialGradient>
    <filter id="soft" x="-20%" y="-20%" width="140%" height="140%">
      <feGaussianBlur stdDeviation="6" result="b"/>
      <feMerge><feMergeNode in="b"/><feMergeNode in="SourceGraphic"/></feMerge>
    </filter>
  </defs>

  <rect width="1200" height="630" fill="#08111E"/>
  <rect width="1200" height="630" fill="url(#glow)"/>

  <text x="600" y="500" font-family="'DejaVu Sans', 'Arial Black', sans-serif" font-size="280" font-weight="900" letter-spacing="20" text-anchor="middle" fill="#FFFFFF" opacity="0.025">WRENCH</text>

  <g transform="translate(110,135) scale(2.6)">
    <path d="M42 96 L20 48 L42 60 L52 24 L62 52 L75 40 L60 96 Z" fill="url(#g)" opacity="0.65"/>
    <path d="M78 96 L56 44 L68 58 L78 18 L88 50 L104 36 L96 96 Z" fill="url(#g)" filter="url(#soft)"/>
    <rect x="16" y="96" width="88" height="3" rx="1.5" fill="url(#g)" opacity="0.45"/>
  </g>

  <text x="470" y="270" font-family="'DejaVu Sans', 'Arial Black', sans-serif" font-size="110" font-weight="900" letter-spacing="6" fill="url(#g)">WRENCH</text>
  <text x="473" y="340" font-family="'DejaVu Sans', 'Arial Black', sans-serif" font-size="46" font-weight="700" letter-spacing="2" fill="#F5F0EB">Built for the Trades.</text>
  <text x="475" y="408" font-family="'DejaVu Sans', sans-serif" font-size="24" fill="#FFFFFF" opacity="0.55">Dispatch, scheduling, service agreements,</text>
  <text x="475" y="442" font-family="'DejaVu Sans', sans-serif" font-size="24" fill="#FFFFFF" opacity="0.55">flat-rate pricebook, mobile tech app.</text>

  <g transform="translate(110,540)">
    <rect width="6" height="42" fill="url(#g)"/>
    <text x="22" y="20" font-family="'DejaVu Sans', sans-serif" font-size="14" letter-spacing="4" fill="#0EA5E9" font-weight="700">FIELD SERVICE SOFTWARE</text>
    <text x="22" y="40" font-family="'DejaVu Sans', sans-serif" font-size="13" letter-spacing="2" fill="#FFFFFF" opacity="0.4">WRENCH.TWOMIAH.COM  ·  FROM $49/MO</text>
  </g>
</svg>